ISO-10303-21;
HEADER;
/* Generated by software containing ST-Developer
 * from STEP Tools, Inc. (www.steptools.com) 
 */
/* OPTION: using custom schema-name function */

FILE_DESCRIPTION(
/* description */ (''),
/* implementation_level */ '2;1');

FILE_NAME(
/* name */ '160-06269-01.stp',
/* time_stamp */ '2025-06-25T17:04:59-07:00',
/* author */ (''),
/* organization */ (''),
/* preprocessor_version */ 'ST-DEVELOPER v19.4',
/* originating_system */ 'SIEMENS PLM Software NX2306.9160',
/* authorisation */ '');

FILE_SCHEMA (('AUTOMOTIVE_DESIGN { 1 0 10303 214 3 1 1 1 }'));
ENDSEC;

DATA;
#10=PROPERTY_DEFINITION_REPRESENTATION(#14,#12);
#11=PROPERTY_DEFINITION_REPRESENTATION(#15,#13);
#12=REPRESENTATION('',(#16),#1003);
#13=REPRESENTATION('',(#17),#1003);
#14=PROPERTY_DEFINITION('pmi validation property','',#21);
#15=PROPERTY_DEFINITION('pmi validation property','',#21);
#16=VALUE_REPRESENTATION_ITEM('number of annotations',COUNT_MEASURE(0.));
#17=VALUE_REPRESENTATION_ITEM('number of views',COUNT_MEASURE(0.));
#18=SHAPE_REPRESENTATION_RELATIONSHIP('None',
'relationship between khel0D7CC19Felc2-None and khel0D7CC19Felc2-None',
#30,#19);
#19=ADVANCED_BREP_SHAPE_REPRESENTATION('khel0D7CC19Felc2-None',(#40),#1003);
#20=SHAPE_DEFINITION_REPRESENTATION(#21,#30);
#21=PRODUCT_DEFINITION_SHAPE('','',#22);
#22=PRODUCT_DEFINITION(' ','',#24,#23);
#23=PRODUCT_DEFINITION_CONTEXT('part definition',#29,'design');
#24=PRODUCT_DEFINITION_FORMATION_WITH_SPECIFIED_SOURCE(' ',' ',#26,
 .NOT_KNOWN.);
#25=PRODUCT_RELATED_PRODUCT_CATEGORY('part','',(#26));
#26=PRODUCT('khel0D7CC19Felc2','khel0D7CC19Felc2',' ',(#27));
#27=PRODUCT_CONTEXT(' ',#29,'mechanical');
#28=APPLICATION_PROTOCOL_DEFINITION('international standard',
'automotive_design',2010,#29);
#29=APPLICATION_CONTEXT(
'core data for automotive mechanical design processes');
#30=SHAPE_REPRESENTATION('khel0D7CC19Felc2-None',(#574),#1003);
#31=PRESENTATION_LAYER_ASSIGNMENT('2','Layer 2',(#40));
#32=STYLED_ITEM('',(#33),#40);
#33=PRESENTATION_STYLE_ASSIGNMENT((#34));
#34=SURFACE_STYLE_USAGE(.BOTH.,#35);
#35=SURFACE_SIDE_STYLE('',(#36));
#36=SURFACE_STYLE_FILL_AREA(#37);
#37=FILL_AREA_STYLE('',(#38));
#38=FILL_AREA_STYLE_COLOUR('',#39);
#39=COLOUR_RGB('dark dull violet',0.4,0.2,0.6);
#40=MANIFOLD_SOLID_BREP('',#41);
#41=CLOSED_SHELL('',(#112,#113,#114,#115,#116,#117,#118,#119,#120,#121,
#122,#123,#124,#125,#126,#127,#128,#129,#130,#131,#132,#133,#134,#135,#136,
#137,#138,#139,#140,#141,#142,#143,#144,#145,#146,#147,#148,#149));
#42=TOROIDAL_SURFACE('',#612,0.7,0.2);
#43=TOROIDAL_SURFACE('',#622,0.7,0.2);
#44=TOROIDAL_SURFACE('',#638,0.8,0.2);
#45=TOROIDAL_SURFACE('',#644,0.8,0.2);
#46=SPHERICAL_SURFACE('',#606,0.2);
#47=SPHERICAL_SURFACE('',#614,0.2);
#48=SPHERICAL_SURFACE('',#620,0.2);
#49=SPHERICAL_SURFACE('',#627,0.2);
#50=SPHERICAL_SURFACE('',#630,0.2);
#51=SPHERICAL_SURFACE('',#636,0.2);
#52=SPHERICAL_SURFACE('',#646,0.2);
#53=SPHERICAL_SURFACE('',#651,0.2);
#54=CYLINDRICAL_SURFACE('',#587,0.5);
#55=CYLINDRICAL_SURFACE('',#591,1.);
#56=CYLINDRICAL_SURFACE('',#594,0.2);
#57=CYLINDRICAL_SURFACE('',#597,0.2);
#58=CYLINDRICAL_SURFACE('',#600,0.2);
#59=CYLINDRICAL_SURFACE('',#603,0.2);
#60=CYLINDRICAL_SURFACE('',#608,0.2);
#61=CYLINDRICAL_SURFACE('',#610,0.2);
#62=CYLINDRICAL_SURFACE('',#616,0.2);
#63=CYLINDRICAL_SURFACE('',#618,0.2);
#64=CYLINDRICAL_SURFACE('',#624,0.2);
#65=CYLINDRICAL_SURFACE('',#626,0.2);
#66=CYLINDRICAL_SURFACE('',#632,0.2);
#67=CYLINDRICAL_SURFACE('',#634,0.2);
#68=CYLINDRICAL_SURFACE('',#640,0.2);
#69=CYLINDRICAL_SURFACE('',#642,0.2);
#70=CYLINDRICAL_SURFACE('',#648,0.2);
#71=CYLINDRICAL_SURFACE('',#650,0.2);
#72=B_SPLINE_CURVE_WITH_KNOTS('',3,(#924,#925,#926,#927),.UNSPECIFIED.,
 .F.,.F.,(4,4),(0.,1.),.UNSPECIFIED.);
#73=CIRCLE('',#577,0.7);
#74=CIRCLE('',#578,0.8);
#75=CIRCLE('',#582,0.7);
#76=CIRCLE('',#583,0.8);
#77=CIRCLE('',#586,0.5);
#78=CIRCLE('',#589,1.);
#79=CIRCLE('',#590,1.);
#80=CIRCLE('',#592,0.2);
#81=CIRCLE('',#593,0.2);
#82=CIRCLE('',#595,0.2);
#83=CIRCLE('',#596,0.2);
#84=CIRCLE('',#598,0.2);
#85=CIRCLE('',#599,0.2);
#86=CIRCLE('',#601,0.2);
#87=CIRCLE('',#602,0.2);
#88=CIRCLE('',#604,0.2);
#89=CIRCLE('',#605,0.2);
#90=CIRCLE('',#607,0.2);
#91=CIRCLE('',#609,0.2);
#92=CIRCLE('',#611,0.2);
#93=CIRCLE('',#613,0.2);
#94=CIRCLE('',#615,0.2);
#95=CIRCLE('',#617,0.2);
#96=CIRCLE('',#619,0.2);
#97=CIRCLE('',#621,0.2);
#98=CIRCLE('',#623,0.2);
#99=CIRCLE('',#625,0.2);
#100=CIRCLE('',#628,0.2);
#101=CIRCLE('',#629,0.2);
#102=CIRCLE('',#631,0.2);
#103=CIRCLE('',#633,0.2);
#104=CIRCLE('',#635,0.2);
#105=CIRCLE('',#637,0.2);
#106=CIRCLE('',#639,0.2);
#107=CIRCLE('',#641,0.2);
#108=CIRCLE('',#643,0.2);
#109=CIRCLE('',#645,0.2);
#110=CIRCLE('',#647,0.2);
#111=CIRCLE('',#649,0.2);
#112=ADVANCED_FACE('',(#158),#150,.T.);
#113=ADVANCED_FACE('',(#159),#151,.T.);
#114=ADVANCED_FACE('',(#160),#152,.T.);
#115=ADVANCED_FACE('',(#161),#153,.T.);
#116=ADVANCED_FACE('',(#162),#154,.F.);
#117=ADVANCED_FACE('',(#163),#155,.F.);
#118=ADVANCED_FACE('',(#164),#156,.T.);
#119=ADVANCED_FACE('',(#165),#54,.F.);
#120=ADVANCED_FACE('',(#166),#157,.T.);
#121=ADVANCED_FACE('',(#167),#55,.T.);
#122=ADVANCED_FACE('',(#168),#56,.T.);
#123=ADVANCED_FACE('',(#169),#57,.T.);
#124=ADVANCED_FACE('',(#170),#58,.T.);
#125=ADVANCED_FACE('',(#171),#59,.T.);
#126=ADVANCED_FACE('',(#172),#46,.T.);
#127=ADVANCED_FACE('',(#173),#60,.T.);
#128=ADVANCED_FACE('',(#174),#61,.T.);
#129=ADVANCED_FACE('',(#175),#42,.T.);
#130=ADVANCED_FACE('',(#176),#47,.T.);
#131=ADVANCED_FACE('',(#177),#62,.T.);
#132=ADVANCED_FACE('',(#178),#63,.T.);
#133=ADVANCED_FACE('',(#179),#48,.T.);
#134=ADVANCED_FACE('',(#180),#43,.T.);
#135=ADVANCED_FACE('',(#181),#64,.T.);
#136=ADVANCED_FACE('',(#182),#65,.T.);
#137=ADVANCED_FACE('',(#183),#49,.T.);
#138=ADVANCED_FACE('',(#184),#50,.T.);
#139=ADVANCED_FACE('',(#185),#66,.T.);
#140=ADVANCED_FACE('',(#186),#67,.T.);
#141=ADVANCED_FACE('',(#187),#51,.T.);
#142=ADVANCED_FACE('',(#188),#44,.T.);
#143=ADVANCED_FACE('',(#189),#68,.T.);
#144=ADVANCED_FACE('',(#190),#69,.T.);
#145=ADVANCED_FACE('',(#191),#45,.T.);
#146=ADVANCED_FACE('',(#192),#52,.T.);
#147=ADVANCED_FACE('',(#193),#70,.T.);
#148=ADVANCED_FACE('',(#194),#71,.T.);
#149=ADVANCED_FACE('',(#195),#53,.T.);
#150=PLANE('',#575);
#151=PLANE('',#576);
#152=PLANE('',#579);
#153=PLANE('',#580);
#154=PLANE('',#581);
#155=PLANE('',#584);
#156=PLANE('',#585);
#157=PLANE('',#588);
#158=FACE_OUTER_BOUND('',#196,.T.);
#159=FACE_OUTER_BOUND('',#197,.T.);
#160=FACE_OUTER_BOUND('',#198,.T.);
#161=FACE_OUTER_BOUND('',#199,.T.);
#162=FACE_OUTER_BOUND('',#200,.T.);
#163=FACE_OUTER_BOUND('',#201,.T.);
#164=FACE_OUTER_BOUND('',#202,.T.);
#165=FACE_OUTER_BOUND('',#203,.T.);
#166=FACE_OUTER_BOUND('',#204,.T.);
#167=FACE_OUTER_BOUND('',#205,.T.);
#168=FACE_OUTER_BOUND('',#206,.T.);
#169=FACE_OUTER_BOUND('',#207,.T.);
#170=FACE_OUTER_BOUND('',#208,.T.);
#171=FACE_OUTER_BOUND('',#209,.T.);
#172=FACE_OUTER_BOUND('',#210,.T.);
#173=FACE_OUTER_BOUND('',#211,.T.);
#174=FACE_OUTER_BOUND('',#212,.T.);
#175=FACE_OUTER_BOUND('',#213,.T.);
#176=FACE_OUTER_BOUND('',#214,.T.);
#177=FACE_OUTER_BOUND('',#215,.T.);
#178=FACE_OUTER_BOUND('',#216,.T.);
#179=FACE_OUTER_BOUND('',#217,.T.);
#180=FACE_OUTER_BOUND('',#218,.T.);
#181=FACE_OUTER_BOUND('',#219,.T.);
#182=FACE_OUTER_BOUND('',#220,.T.);
#183=FACE_OUTER_BOUND('',#221,.T.);
#184=FACE_OUTER_BOUND('',#222,.T.);
#185=FACE_OUTER_BOUND('',#223,.T.);
#186=FACE_OUTER_BOUND('',#224,.T.);
#187=FACE_OUTER_BOUND('',#225,.T.);
#188=FACE_OUTER_BOUND('',#226,.T.);
#189=FACE_OUTER_BOUND('',#227,.T.);
#190=FACE_OUTER_BOUND('',#228,.T.);
#191=FACE_OUTER_BOUND('',#229,.T.);
#192=FACE_OUTER_BOUND('',#230,.T.);
#193=FACE_OUTER_BOUND('',#231,.T.);
#194=FACE_OUTER_BOUND('',#232,.T.);
#195=FACE_OUTER_BOUND('',#233,.T.);
#196=EDGE_LOOP('',(#234,#235,#236,#237));
#197=EDGE_LOOP('',(#238,#239,#240,#241));
#198=EDGE_LOOP('',(#242,#243,#244,#245,#246,#247,#248,#249));
#199=EDGE_LOOP('',(#250,#251,#252,#253));
#200=EDGE_LOOP('',(#254,#255,#256,#257));
#201=EDGE_LOOP('',(#258,#259,#260,#261,#262,#263,#264,#265));
#202=EDGE_LOOP('',(#266,#267,#268,#269));
#203=EDGE_LOOP('',(#270,#271,#272,#273));
#204=EDGE_LOOP('',(#274,#275,#276,#277));
#205=EDGE_LOOP('',(#278,#279,#280,#281));
#206=EDGE_LOOP('',(#282,#283,#284,#285));
#207=EDGE_LOOP('',(#286,#287,#288,#289));
#208=EDGE_LOOP('',(#290,#291,#292,#293));
#209=EDGE_LOOP('',(#294,#295,#296,#297));
#210=EDGE_LOOP('',(#298,#299,#300));
#211=EDGE_LOOP('',(#301,#302,#303,#304));
#212=EDGE_LOOP('',(#305,#306,#307,#308));
#213=EDGE_LOOP('',(#309,#310,#311,#312));
#214=EDGE_LOOP('',(#313,#314,#315));
#215=EDGE_LOOP('',(#316,#317,#318,#319));
#216=EDGE_LOOP('',(#320,#321,#322,#323));
#217=EDGE_LOOP('',(#324,#325,#326));
#218=EDGE_LOOP('',(#327,#328,#329,#330));
#219=EDGE_LOOP('',(#331,#332,#333,#334));
#220=EDGE_LOOP('',(#335,#336,#337,#338));
#221=EDGE_LOOP('',(#339,#340,#341));
#222=EDGE_LOOP('',(#342,#343,#344));
#223=EDGE_LOOP('',(#345,#346,#347,#348));
#224=EDGE_LOOP('',(#349,#350,#351,#352));
#225=EDGE_LOOP('',(#353,#354,#355));
#226=EDGE_LOOP('',(#356,#357,#358,#359));
#227=EDGE_LOOP('',(#360,#361,#362,#363));
#228=EDGE_LOOP('',(#364,#365,#366,#367));
#229=EDGE_LOOP('',(#368,#369,#370,#371));
#230=EDGE_LOOP('',(#372,#373,#374));
#231=EDGE_LOOP('',(#375,#376,#377,#378));
#232=EDGE_LOOP('',(#379,#380,#381,#382));
#233=EDGE_LOOP('',(#383,#384,#385));
#234=ORIENTED_EDGE('',*,*,#426,.T.);
#235=ORIENTED_EDGE('',*,*,#427,.T.);
#236=ORIENTED_EDGE('',*,*,#428,.T.);
#237=ORIENTED_EDGE('',*,*,#429,.T.);
#238=ORIENTED_EDGE('',*,*,#430,.T.);
#239=ORIENTED_EDGE('',*,*,#431,.T.);
#240=ORIENTED_EDGE('',*,*,#432,.T.);
#241=ORIENTED_EDGE('',*,*,#433,.T.);
#242=ORIENTED_EDGE('',*,*,#434,.T.);
#243=ORIENTED_EDGE('',*,*,#435,.T.);
#244=ORIENTED_EDGE('',*,*,#436,.T.);
#245=ORIENTED_EDGE('',*,*,#437,.T.);
#246=ORIENTED_EDGE('',*,*,#438,.T.);
#247=ORIENTED_EDGE('',*,*,#439,.T.);
#248=ORIENTED_EDGE('',*,*,#440,.T.);
#249=ORIENTED_EDGE('',*,*,#441,.T.);
#250=ORIENTED_EDGE('',*,*,#442,.T.);
#251=ORIENTED_EDGE('',*,*,#443,.T.);
#252=ORIENTED_EDGE('',*,*,#444,.T.);
#253=ORIENTED_EDGE('',*,*,#445,.T.);
#254=ORIENTED_EDGE('',*,*,#446,.T.);
#255=ORIENTED_EDGE('',*,*,#447,.T.);
#256=ORIENTED_EDGE('',*,*,#448,.T.);
#257=ORIENTED_EDGE('',*,*,#449,.T.);
#258=ORIENTED_EDGE('',*,*,#450,.T.);
#259=ORIENTED_EDGE('',*,*,#451,.T.);
#260=ORIENTED_EDGE('',*,*,#452,.T.);
#261=ORIENTED_EDGE('',*,*,#453,.T.);
#262=ORIENTED_EDGE('',*,*,#454,.T.);
#263=ORIENTED_EDGE('',*,*,#455,.T.);
#264=ORIENTED_EDGE('',*,*,#456,.T.);
#265=ORIENTED_EDGE('',*,*,#457,.T.);
#266=ORIENTED_EDGE('',*,*,#458,.T.);
#267=ORIENTED_EDGE('',*,*,#459,.T.);
#268=ORIENTED_EDGE('',*,*,#460,.T.);
#269=ORIENTED_EDGE('',*,*,#461,.T.);
#270=ORIENTED_EDGE('',*,*,#460,.F.);
#271=ORIENTED_EDGE('',*,*,#462,.T.);
#272=ORIENTED_EDGE('',*,*,#426,.F.);
#273=ORIENTED_EDGE('',*,*,#463,.T.);
#274=ORIENTED_EDGE('',*,*,#464,.T.);
#275=ORIENTED_EDGE('',*,*,#465,.T.);
#276=ORIENTED_EDGE('',*,*,#466,.T.);
#277=ORIENTED_EDGE('',*,*,#467,.T.);
#278=ORIENTED_EDGE('',*,*,#466,.F.);
#279=ORIENTED_EDGE('',*,*,#468,.T.);
#280=ORIENTED_EDGE('',*,*,#446,.F.);
#281=ORIENTED_EDGE('',*,*,#469,.T.);
#282=ORIENTED_EDGE('',*,*,#452,.F.);
#283=ORIENTED_EDGE('',*,*,#470,.T.);
#284=ORIENTED_EDGE('',*,*,#430,.F.);
#285=ORIENTED_EDGE('',*,*,#471,.T.);
#286=ORIENTED_EDGE('',*,*,#444,.F.);
#287=ORIENTED_EDGE('',*,*,#472,.T.);
#288=ORIENTED_EDGE('',*,*,#456,.F.);
#289=ORIENTED_EDGE('',*,*,#473,.T.);
#290=ORIENTED_EDGE('',*,*,#432,.F.);
#291=ORIENTED_EDGE('',*,*,#474,.T.);
#292=ORIENTED_EDGE('',*,*,#440,.F.);
#293=ORIENTED_EDGE('',*,*,#475,.T.);
#294=ORIENTED_EDGE('',*,*,#436,.F.);
#295=ORIENTED_EDGE('',*,*,#476,.T.);
#296=ORIENTED_EDGE('',*,*,#442,.F.);
#297=ORIENTED_EDGE('',*,*,#477,.T.);
#298=ORIENTED_EDGE('',*,*,#478,.F.);
#299=ORIENTED_EDGE('',*,*,#476,.F.);
#300=ORIENTED_EDGE('',*,*,#479,.F.);
#301=ORIENTED_EDGE('',*,*,#479,.T.);
#302=ORIENTED_EDGE('',*,*,#435,.F.);
#303=ORIENTED_EDGE('',*,*,#480,.F.);
#304=ORIENTED_EDGE('',*,*,#429,.F.);
#305=ORIENTED_EDGE('',*,*,#478,.T.);
#306=ORIENTED_EDGE('',*,*,#428,.F.);
#307=ORIENTED_EDGE('',*,*,#481,.F.);
#308=ORIENTED_EDGE('',*,*,#443,.F.);
#309=ORIENTED_EDGE('',*,*,#480,.T.);
#310=ORIENTED_EDGE('',*,*,#434,.F.);
#311=ORIENTED_EDGE('',*,*,#482,.F.);
#312=ORIENTED_EDGE('',*,*,#463,.F.);
#313=ORIENTED_EDGE('',*,*,#472,.F.);
#314=ORIENTED_EDGE('',*,*,#481,.T.);
#315=ORIENTED_EDGE('',*,*,#483,.F.);
#316=ORIENTED_EDGE('',*,*,#482,.T.);
#317=ORIENTED_EDGE('',*,*,#441,.F.);
#318=ORIENTED_EDGE('',*,*,#484,.F.);
#319=ORIENTED_EDGE('',*,*,#461,.F.);
#320=ORIENTED_EDGE('',*,*,#483,.T.);
#321=ORIENTED_EDGE('',*,*,#427,.F.);
#322=ORIENTED_EDGE('',*,*,#485,.F.);
#323=ORIENTED_EDGE('',*,*,#457,.F.);
#324=ORIENTED_EDGE('',*,*,#484,.T.);
#325=ORIENTED_EDGE('',*,*,#474,.F.);
#326=ORIENTED_EDGE('',*,*,#486,.F.);
#327=ORIENTED_EDGE('',*,*,#485,.T.);
#328=ORIENTED_EDGE('',*,*,#462,.F.);
#329=ORIENTED_EDGE('',*,*,#487,.F.);
#330=ORIENTED_EDGE('',*,*,#450,.F.);
#331=ORIENTED_EDGE('',*,*,#486,.T.);
#332=ORIENTED_EDGE('',*,*,#431,.F.);
#333=ORIENTED_EDGE('',*,*,#488,.F.);
#334=ORIENTED_EDGE('',*,*,#458,.F.);
#335=ORIENTED_EDGE('',*,*,#487,.T.);
#336=ORIENTED_EDGE('',*,*,#459,.F.);
#337=ORIENTED_EDGE('',*,*,#489,.F.);
#338=ORIENTED_EDGE('',*,*,#451,.F.);
#339=ORIENTED_EDGE('',*,*,#488,.T.);
#340=ORIENTED_EDGE('',*,*,#470,.F.);
#341=ORIENTED_EDGE('',*,*,#489,.T.);
#342=ORIENTED_EDGE('',*,*,#490,.F.);
#343=ORIENTED_EDGE('',*,*,#477,.F.);
#344=ORIENTED_EDGE('',*,*,#491,.F.);
#345=ORIENTED_EDGE('',*,*,#491,.T.);
#346=ORIENTED_EDGE('',*,*,#445,.F.);
#347=ORIENTED_EDGE('',*,*,#492,.F.);
#348=ORIENTED_EDGE('',*,*,#464,.F.);
#349=ORIENTED_EDGE('',*,*,#490,.T.);
#350=ORIENTED_EDGE('',*,*,#467,.F.);
#351=ORIENTED_EDGE('',*,*,#493,.F.);
#352=ORIENTED_EDGE('',*,*,#437,.F.);
#353=ORIENTED_EDGE('',*,*,#492,.T.);
#354=ORIENTED_EDGE('',*,*,#473,.F.);
#355=ORIENTED_EDGE('',*,*,#494,.F.);
#356=ORIENTED_EDGE('',*,*,#493,.T.);
#357=ORIENTED_EDGE('',*,*,#469,.F.);
#358=ORIENTED_EDGE('',*,*,#495,.F.);
#359=ORIENTED_EDGE('',*,*,#438,.F.);
#360=ORIENTED_EDGE('',*,*,#494,.T.);
#361=ORIENTED_EDGE('',*,*,#455,.F.);
#362=ORIENTED_EDGE('',*,*,#496,.F.);
#363=ORIENTED_EDGE('',*,*,#465,.F.);
#364=ORIENTED_EDGE('',*,*,#495,.T.);
#365=ORIENTED_EDGE('',*,*,#449,.F.);
#366=ORIENTED_EDGE('',*,*,#497,.F.);
#367=ORIENTED_EDGE('',*,*,#439,.F.);
#368=ORIENTED_EDGE('',*,*,#496,.T.);
#369=ORIENTED_EDGE('',*,*,#454,.F.);
#370=ORIENTED_EDGE('',*,*,#498,.F.);
#371=ORIENTED_EDGE('',*,*,#468,.F.);
#372=ORIENTED_EDGE('',*,*,#475,.F.);
#373=ORIENTED_EDGE('',*,*,#497,.T.);
#374=ORIENTED_EDGE('',*,*,#499,.F.);
#375=ORIENTED_EDGE('',*,*,#498,.T.);
#376=ORIENTED_EDGE('',*,*,#453,.F.);
#377=ORIENTED_EDGE('',*,*,#500,.F.);
#378=ORIENTED_EDGE('',*,*,#447,.F.);
#379=ORIENTED_EDGE('',*,*,#499,.T.);
#380=ORIENTED_EDGE('',*,*,#448,.F.);
#381=ORIENTED_EDGE('',*,*,#501,.F.);
#382=ORIENTED_EDGE('',*,*,#433,.F.);
#383=ORIENTED_EDGE('',*,*,#500,.T.);
#384=ORIENTED_EDGE('',*,*,#471,.F.);
#385=ORIENTED_EDGE('',*,*,#501,.T.);
#386=VERTEX_POINT('',#846);
#387=VERTEX_POINT('',#847);
#388=VERTEX_POINT('',#849);
#389=VERTEX_POINT('',#851);
#390=VERTEX_POINT('',#855);
#391=VERTEX_POINT('',#856);
#392=VERTEX_POINT('',#858);
#393=VERTEX_POINT('',#860);
#394=VERTEX_POINT('',#864);
#395=VERTEX_POINT('',#865);
#396=VERTEX_POINT('',#867);
#397=VERTEX_POINT('',#869);
#398=VERTEX_POINT('',#871);
#399=VERTEX_POINT('',#873);
#400=VERTEX_POINT('',#875);
#401=VERTEX_POINT('',#877);
#402=VERTEX_POINT('',#881);
#403=VERTEX_POINT('',#882);
#404=VERTEX_POINT('',#884);
#405=VERTEX_POINT('',#886);
#406=VERTEX_POINT('',#890);
#407=VERTEX_POINT('',#891);
#408=VERTEX_POINT('',#893);
#409=VERTEX_POINT('',#895);
#410=VERTEX_POINT('',#899);
#411=VERTEX_POINT('',#900);
#412=VERTEX_POINT('',#902);
#413=VERTEX_POINT('',#904);
#414=VERTEX_POINT('',#906);
#415=VERTEX_POINT('',#908);
#416=VERTEX_POINT('',#910);
#417=VERTEX_POINT('',#912);
#418=VERTEX_POINT('',#916);
#419=VERTEX_POINT('',#917);
#420=VERTEX_POINT('',#919);
#421=VERTEX_POINT('',#921);
#422=VERTEX_POINT('',#931);
#423=VERTEX_POINT('',#932);
#424=VERTEX_POINT('',#934);
#425=VERTEX_POINT('',#936);
#426=EDGE_CURVE('',#386,#387,#502,.T.);
#427=EDGE_CURVE('',#387,#388,#503,.T.);
#428=EDGE_CURVE('',#388,#389,#504,.T.);
#429=EDGE_CURVE('',#389,#386,#505,.T.);
#430=EDGE_CURVE('',#390,#391,#506,.T.);
#431=EDGE_CURVE('',#391,#392,#507,.T.);
#432=EDGE_CURVE('',#392,#393,#508,.T.);
#433=EDGE_CURVE('',#393,#390,#509,.T.);
#434=EDGE_CURVE('',#394,#395,#73,.T.);
#435=EDGE_CURVE('',#395,#396,#510,.T.);
#436=EDGE_CURVE('',#396,#397,#511,.T.);
#437=EDGE_CURVE('',#397,#398,#512,.T.);
#438=EDGE_CURVE('',#398,#399,#74,.T.);
#439=EDGE_CURVE('',#399,#400,#513,.T.);
#440=EDGE_CURVE('',#400,#401,#514,.T.);
#441=EDGE_CURVE('',#401,#394,#515,.T.);
#442=EDGE_CURVE('',#402,#403,#516,.T.);
#443=EDGE_CURVE('',#403,#404,#517,.T.);
#444=EDGE_CURVE('',#404,#405,#518,.T.);
#445=EDGE_CURVE('',#405,#402,#519,.T.);
#446=EDGE_CURVE('',#406,#407,#520,.T.);
#447=EDGE_CURVE('',#407,#408,#521,.T.);
#448=EDGE_CURVE('',#408,#409,#522,.T.);
#449=EDGE_CURVE('',#409,#406,#523,.T.);
#450=EDGE_CURVE('',#410,#411,#75,.T.);
#451=EDGE_CURVE('',#411,#412,#524,.T.);
#452=EDGE_CURVE('',#412,#413,#525,.T.);
#453=EDGE_CURVE('',#413,#414,#526,.T.);
#454=EDGE_CURVE('',#414,#415,#76,.T.);
#455=EDGE_CURVE('',#415,#416,#527,.T.);
#456=EDGE_CURVE('',#416,#417,#528,.T.);
#457=EDGE_CURVE('',#417,#410,#529,.T.);
#458=EDGE_CURVE('',#418,#419,#530,.T.);
#459=EDGE_CURVE('',#419,#420,#531,.T.);
#460=EDGE_CURVE('',#420,#421,#532,.T.);
#461=EDGE_CURVE('',#421,#418,#533,.T.);
#462=EDGE_CURVE('',#420,#387,#72,.T.);
#463=EDGE_CURVE('',#386,#421,#77,.T.);
#464=EDGE_CURVE('',#422,#423,#534,.T.);
#465=EDGE_CURVE('',#423,#424,#535,.T.);
#466=EDGE_CURVE('',#424,#425,#536,.T.);
#467=EDGE_CURVE('',#425,#422,#537,.T.);
#468=EDGE_CURVE('',#424,#407,#78,.T.);
#469=EDGE_CURVE('',#406,#425,#79,.T.);
#470=EDGE_CURVE('',#412,#391,#80,.T.);
#471=EDGE_CURVE('',#390,#413,#81,.T.);
#472=EDGE_CURVE('',#404,#417,#82,.T.);
#473=EDGE_CURVE('',#416,#405,#83,.T.);
#474=EDGE_CURVE('',#392,#401,#84,.T.);
#475=EDGE_CURVE('',#400,#393,#85,.T.);
#476=EDGE_CURVE('',#396,#403,#86,.T.);
#477=EDGE_CURVE('',#402,#397,#87,.T.);
#478=EDGE_CURVE('',#403,#389,#88,.T.);
#479=EDGE_CURVE('',#389,#396,#89,.T.);
#480=EDGE_CURVE('',#386,#395,#90,.T.);
#481=EDGE_CURVE('',#404,#388,#91,.T.);
#482=EDGE_CURVE('',#421,#394,#92,.T.);
#483=EDGE_CURVE('',#417,#388,#93,.T.);
#484=EDGE_CURVE('',#418,#401,#94,.T.);
#485=EDGE_CURVE('',#410,#387,#95,.T.);
#486=EDGE_CURVE('',#418,#392,#96,.T.);
#487=EDGE_CURVE('',#411,#420,#97,.T.);
#488=EDGE_CURVE('',#419,#391,#98,.T.);
#489=EDGE_CURVE('',#412,#419,#99,.T.);
#490=EDGE_CURVE('',#397,#422,#100,.T.);
#491=EDGE_CURVE('',#422,#402,#101,.T.);
#492=EDGE_CURVE('',#423,#405,#102,.T.);
#493=EDGE_CURVE('',#398,#425,#103,.T.);
#494=EDGE_CURVE('',#423,#416,#104,.T.);
#495=EDGE_CURVE('',#399,#406,#105,.T.);
#496=EDGE_CURVE('',#424,#415,#106,.T.);
#497=EDGE_CURVE('',#400,#409,#107,.T.);
#498=EDGE_CURVE('',#407,#414,#108,.T.);
#499=EDGE_CURVE('',#393,#409,#109,.T.);
#500=EDGE_CURVE('',#408,#413,#110,.T.);
#501=EDGE_CURVE('',#390,#408,#111,.T.);
#502=LINE('',#845,#538);
#503=LINE('',#848,#539);
#504=LINE('',#850,#540);
#505=LINE('',#852,#541);
#506=LINE('',#854,#542);
#507=LINE('',#857,#543);
#508=LINE('',#859,#544);
#509=LINE('',#861,#545);
#510=LINE('',#866,#546);
#511=LINE('',#868,#547);
#512=LINE('',#870,#548);
#513=LINE('',#874,#549);
#514=LINE('',#876,#550);
#515=LINE('',#878,#551);
#516=LINE('',#880,#552);
#517=LINE('',#883,#553);
#518=LINE('',#885,#554);
#519=LINE('',#887,#555);
#520=LINE('',#889,#556);
#521=LINE('',#892,#557);
#522=LINE('',#894,#558);
#523=LINE('',#896,#559);
#524=LINE('',#901,#560);
#525=LINE('',#903,#561);
#526=LINE('',#905,#562);
#527=LINE('',#909,#563);
#528=LINE('',#911,#564);
#529=LINE('',#913,#565);
#530=LINE('',#915,#566);
#531=LINE('',#918,#567);
#532=LINE('',#920,#568);
#533=LINE('',#922,#569);
#534=LINE('',#930,#570);
#535=LINE('',#933,#571);
#536=LINE('',#935,#572);
#537=LINE('',#937,#573);
#538=VECTOR('',#654,1.);
#539=VECTOR('',#655,1.);
#540=VECTOR('',#656,1.);
#541=VECTOR('',#657,1.);
#542=VECTOR('',#660,1.);
#543=VECTOR('',#661,1.);
#544=VECTOR('',#662,1.);
#545=VECTOR('',#663,1.);
#546=VECTOR('',#668,1.);
#547=VECTOR('',#669,1.);
#548=VECTOR('',#670,1.);
#549=VECTOR('',#673,1.);
#550=VECTOR('',#674,1.);
#551=VECTOR('',#675,1.);
#552=VECTOR('',#678,1.);
#553=VECTOR('',#679,1.);
#554=VECTOR('',#680,1.);
#555=VECTOR('',#681,1.);
#556=VECTOR('',#684,1.);
#557=VECTOR('',#685,1.);
#558=VECTOR('',#686,1.);
#559=VECTOR('',#687,1.);
#560=VECTOR('',#692,1.);
#561=VECTOR('',#693,1.);
#562=VECTOR('',#694,1.);
#563=VECTOR('',#697,1.);
#564=VECTOR('',#698,1.);
#565=VECTOR('',#699,1.);
#566=VECTOR('',#702,1.);
#567=VECTOR('',#703,1.);
#568=VECTOR('',#704,1.);
#569=VECTOR('',#705,1.);
#570=VECTOR('',#712,1.);
#571=VECTOR('',#713,1.);
#572=VECTOR('',#714,1.);
#573=VECTOR('',#715,1.);
#574=AXIS2_PLACEMENT_3D('',#844,#652,#653);
#575=AXIS2_PLACEMENT_3D('',#853,#658,#659);
#576=AXIS2_PLACEMENT_3D('',#862,#664,#665);
#577=AXIS2_PLACEMENT_3D('',#863,#666,#667);
#578=AXIS2_PLACEMENT_3D('',#872,#671,#672);
#579=AXIS2_PLACEMENT_3D('',#879,#676,#677);
#580=AXIS2_PLACEMENT_3D('',#888,#682,#683);
#581=AXIS2_PLACEMENT_3D('',#897,#688,#689);
#582=AXIS2_PLACEMENT_3D('',#898,#690,#691);
#583=AXIS2_PLACEMENT_3D('',#907,#695,#696);
#584=AXIS2_PLACEMENT_3D('',#914,#700,#701);
#585=AXIS2_PLACEMENT_3D('',#923,#706,#707);
#586=AXIS2_PLACEMENT_3D('',#928,#708,#709);
#587=AXIS2_PLACEMENT_3D('',#929,#710,#711);
#588=AXIS2_PLACEMENT_3D('',#938,#716,#717);
#589=AXIS2_PLACEMENT_3D('',#939,#718,#719);
#590=AXIS2_PLACEMENT_3D('',#940,#720,#721);
#591=AXIS2_PLACEMENT_3D('',#941,#722,#723);
#592=AXIS2_PLACEMENT_3D('',#942,#724,#725);
#593=AXIS2_PLACEMENT_3D('',#943,#726,#727);
#594=AXIS2_PLACEMENT_3D('',#944,#728,#729);
#595=AXIS2_PLACEMENT_3D('',#945,#730,#731);
#596=AXIS2_PLACEMENT_3D('',#946,#732,#733);
#597=AXIS2_PLACEMENT_3D('',#947,#734,#735);
#598=AXIS2_PLACEMENT_3D('',#948,#736,#737);
#599=AXIS2_PLACEMENT_3D('',#949,#738,#739);
#600=AXIS2_PLACEMENT_3D('',#950,#740,#741);
#601=AXIS2_PLACEMENT_3D('',#951,#742,#743);
#602=AXIS2_PLACEMENT_3D('',#952,#744,#745);
#603=AXIS2_PLACEMENT_3D('',#953,#746,#747);
#604=AXIS2_PLACEMENT_3D('',#954,#748,#749);
#605=AXIS2_PLACEMENT_3D('',#955,#750,#751);
#606=AXIS2_PLACEMENT_3D('',#956,#752,#753);
#607=AXIS2_PLACEMENT_3D('',#957,#754,#755);
#608=AXIS2_PLACEMENT_3D('',#958,#756,#757);
#609=AXIS2_PLACEMENT_3D('',#959,#758,#759);
#610=AXIS2_PLACEMENT_3D('',#960,#760,#761);
#611=AXIS2_PLACEMENT_3D('',#961,#762,#763);
#612=AXIS2_PLACEMENT_3D('',#962,#764,#765);
#613=AXIS2_PLACEMENT_3D('',#963,#766,#767);
#614=AXIS2_PLACEMENT_3D('',#964,#768,#769);
#615=AXIS2_PLACEMENT_3D('',#965,#770,#771);
#616=AXIS2_PLACEMENT_3D('',#966,#772,#773);
#617=AXIS2_PLACEMENT_3D('',#967,#774,#775);
#618=AXIS2_PLACEMENT_3D('',#968,#776,#777);
#619=AXIS2_PLACEMENT_3D('',#969,#778,#779);
#620=AXIS2_PLACEMENT_3D('',#970,#780,#781);
#621=AXIS2_PLACEMENT_3D('',#971,#782,#783);
#622=AXIS2_PLACEMENT_3D('',#972,#784,#785);
#623=AXIS2_PLACEMENT_3D('',#973,#786,#787);
#624=AXIS2_PLACEMENT_3D('',#974,#788,#789);
#625=AXIS2_PLACEMENT_3D('',#975,#790,#791);
#626=AXIS2_PLACEMENT_3D('',#976,#792,#793);
#627=AXIS2_PLACEMENT_3D('',#977,#794,#795);
#628=AXIS2_PLACEMENT_3D('',#978,#796,#797);
#629=AXIS2_PLACEMENT_3D('',#979,#798,#799);
#630=AXIS2_PLACEMENT_3D('',#980,#800,#801);
#631=AXIS2_PLACEMENT_3D('',#981,#802,#803);
#632=AXIS2_PLACEMENT_3D('',#982,#804,#805);
#633=AXIS2_PLACEMENT_3D('',#983,#806,#807);
#634=AXIS2_PLACEMENT_3D('',#984,#808,#809);
#635=AXIS2_PLACEMENT_3D('',#985,#810,#811);
#636=AXIS2_PLACEMENT_3D('',#986,#812,#813);
#637=AXIS2_PLACEMENT_3D('',#987,#814,#815);
#638=AXIS2_PLACEMENT_3D('',#988,#816,#817);
#639=AXIS2_PLACEMENT_3D('',#989,#818,#819);
#640=AXIS2_PLACEMENT_3D('',#990,#820,#821);
#641=AXIS2_PLACEMENT_3D('',#991,#822,#823);
#642=AXIS2_PLACEMENT_3D('',#992,#824,#825);
#643=AXIS2_PLACEMENT_3D('',#993,#826,#827);
#644=AXIS2_PLACEMENT_3D('',#994,#828,#829);
#645=AXIS2_PLACEMENT_3D('',#995,#830,#831);
#646=AXIS2_PLACEMENT_3D('',#996,#832,#833);
#647=AXIS2_PLACEMENT_3D('',#997,#834,#835);
#648=AXIS2_PLACEMENT_3D('',#998,#836,#837);
#649=AXIS2_PLACEMENT_3D('',#999,#838,#839);
#650=AXIS2_PLACEMENT_3D('',#1000,#840,#841);
#651=AXIS2_PLACEMENT_3D('',#1001,#842,#843);
#652=DIRECTION('',(0.,0.,1.));
#653=DIRECTION('',(1.,0.,0.));
#654=DIRECTION('',(1.,5.68066670089691E-11,3.07249950828841E-27));
#655=DIRECTION('',(1.21213802883879E-16,0.950892540498718,0.309521205128008));
#656=DIRECTION('',(-1.,6.14336974665912E-17,1.84909296246365E-11));
#657=DIRECTION('',(-1.22207104148866E-16,-0.950892540498718,-0.309521205128008));
#658=DIRECTION('',(1.75828680319216E-11,-0.309521205128008,0.950892540498718));
#659=DIRECTION('',(5.72332892884164E-12,0.950892540498718,0.309521205128008));
#660=DIRECTION('',(4.00248730116519E-17,2.45887593970853E-33,1.));
#661=DIRECTION('',(-1.,-6.1433697465891E-17,0.));
#662=DIRECTION('',(-4.03323208164607E-17,-2.47776359513571E-33,-1.));
#663=DIRECTION('',(1.,6.1433697465891E-17,0.));
#664=DIRECTION('',(6.1433697465891E-17,-1.,0.));
#665=DIRECTION('',(1.,6.13658429626796E-17,0.));
#666=DIRECTION('',(1.,-1.15389900469218E-16,-4.03323208164607E-17));
#667=DIRECTION('',(0.,-1.,0.));
#668=DIRECTION('',(1.22207104149789E-16,0.950892540498718,0.309521205128008));
#669=DIRECTION('',(1.56568604641852E-18,0.342020143325669,-0.939692620785909));
#670=DIRECTION('',(-1.21897089363692E-16,-0.916846120975585,-0.399240767522586));
#671=DIRECTION('',(-1.,1.15389900469218E-16,4.03323208164607E-17));
#672=DIRECTION('',(0.,-1.,0.));
#673=DIRECTION('',(-1.15389900469218E-16,-1.,0.));
#674=DIRECTION('',(4.03323208164607E-17,2.47776359513571E-33,1.));
#675=DIRECTION('',(1.15389900469218E-16,1.,0.));
#676=DIRECTION('',(-1.,1.15389900469218E-16,4.03323208164607E-17));
#677=DIRECTION('',(1.73906028466675E-16,-0.309521205089768,0.950892540511165));
#678=DIRECTION('',(-1.56568604657045E-18,-0.342020143325669,0.939692620785909));
#679=DIRECTION('',(1.,-6.14336974672067E-17,-1.84909296246365E-11));
#680=DIRECTION('',(1.5315466689279E-18,0.342020143325669,-0.939692620785909));
#681=DIRECTION('',(-1.,6.73020942097628E-12,-4.21258932371079E-28));
#682=DIRECTION('',(6.32432812923522E-12,0.939692620785909,0.342020143325669));
#683=DIRECTION('',(1.,-6.32433168334945E-12,-1.11513923095607E-12));
#684=DIRECTION('',(1.,-6.73020942097629E-12,0.));
#685=DIRECTION('',(-1.14445377705085E-16,-1.,0.));
#686=DIRECTION('',(-1.,-6.1433697465891E-17,0.));
#687=DIRECTION('',(1.15389900469218E-16,1.,0.));
#688=DIRECTION('',(0.,0.,1.));
#689=DIRECTION('',(0.,1.,0.));
#690=DIRECTION('',(-1.,1.14445377705085E-16,4.00248730116519E-17));
#691=DIRECTION('',(0.,1.,0.));
#692=DIRECTION('',(-1.14445377705085E-16,-1.,0.));
#693=DIRECTION('',(-4.00248730116519E-17,-2.45887593970853E-33,-1.));
#694=DIRECTION('',(1.14445377705085E-16,1.,0.));
#695=DIRECTION('',(1.,-1.14445377705085E-16,-4.00248730116519E-17));
#696=DIRECTION('',(0.,1.,0.));
#697=DIRECTION('',(1.20908361633658E-16,0.916846120975585,0.399240767522586));
#698=DIRECTION('',(-1.53154666871091E-18,-0.342020143325669,0.939692620785909));
#699=DIRECTION('',(-1.21213802883985E-16,-0.950892540498718,-0.309521205128008));
#700=DIRECTION('',(-1.,1.14445377705085E-16,4.00248730116519E-17));
#701=DIRECTION('',(3.46944695195361E-18,-0.309521205089768,0.950892540511165));
#702=DIRECTION('',(1.,6.1433697465891E-17,0.));
#703=DIRECTION('',(1.14445377705085E-16,1.,0.));
#704=DIRECTION('',(-1.,-5.68066670089691E-11,0.));
#705=DIRECTION('',(-1.15389900469218E-16,-1.,0.));
#706=DIRECTION('',(0.,0.,1.));
#707=DIRECTION('',(0.,1.,0.));
#708=DIRECTION('',(-1.,1.15389900469218E-16,4.03323208164607E-17));
#709=DIRECTION('',(0.,-1.,0.));
#710=DIRECTION('',(1.,5.68066670089691E-11,0.));
#711=DIRECTION('',(-5.68069896678125E-11,1.,0.));
#712=DIRECTION('',(1.,-6.73020942097629E-12,-3.11286115700978E-28));
#713=DIRECTION('',(-1.20908361633495E-16,-0.916846120975585,-0.399240767522586));
#714=DIRECTION('',(-1.,6.73020942097629E-12,3.11286115700978E-28));
#715=DIRECTION('',(1.21897089363561E-16,0.916846120975585,0.399240767522586));
#716=DIRECTION('',(2.68697397481831E-12,0.399240767522586,-0.916846120975584));
#717=DIRECTION('',(1.,-6.73020927183243E-12,0.));
#718=DIRECTION('',(-1.,1.14445377705085E-16,4.00248730116519E-17));
#719=DIRECTION('',(0.,1.,0.));
#720=DIRECTION('',(1.,-1.15389900469218E-16,-4.03323208164607E-17));
#721=DIRECTION('',(0.,-1.,0.));
#722=DIRECTION('',(-1.,6.73020942097629E-12,0.));
#723=DIRECTION('',(-6.72985972505202E-12,-1.,0.));
#724=DIRECTION('',(-4.00248730116519E-17,-2.45887593970853E-33,-1.));
#725=DIRECTION('',(-1.,0.,0.));
#726=DIRECTION('',(4.00248730116519E-17,2.45887593970853E-33,1.));
#727=DIRECTION('',(-1.,0.,0.));
#728=DIRECTION('',(4.00248730116519E-17,2.45887593970853E-33,1.));
#729=DIRECTION('',(1.,0.,0.));
#730=DIRECTION('',(1.53154666871091E-18,0.342020143325669,-0.939692620785909));
#731=DIRECTION('',(0.,0.939692620785908,0.342020143325669));
#732=DIRECTION('',(-1.53154666871091E-18,-0.342020143325669,0.939692620785909));
#733=DIRECTION('',(0.,0.939692620785908,0.342020143325669));
#734=DIRECTION('',(1.53154666871091E-18,0.342020143325669,-0.939692620785909));
#735=DIRECTION('',(0.,0.939692620785908,0.342020143325669));
#736=DIRECTION('',(-4.03323208164607E-17,-2.47776359513571E-33,-1.));
#737=DIRECTION('',(-1.,0.,0.));
#738=DIRECTION('',(4.03323208164607E-17,2.47776359513571E-33,1.));
#739=DIRECTION('',(1.,0.,0.));
#740=DIRECTION('',(-4.03323208164607E-17,-2.47776359513571E-33,-1.));
#741=DIRECTION('',(-1.,0.,0.));
#742=DIRECTION('',(1.56568604641852E-18,0.342020143325669,-0.939692620785909));
#743=DIRECTION('',(0.,-0.939692620785908,-0.342020143325669));
#744=DIRECTION('',(-1.56568604641852E-18,-0.342020143325669,0.939692620785909));
#745=DIRECTION('',(0.,-0.939692620785908,-0.342020143325669));
#746=DIRECTION('',(-1.56568604641852E-18,-0.342020143325669,0.939692620785909));
#747=DIRECTION('',(0.,-0.939692620785908,-0.342020143325669));
#748=DIRECTION('',(1.,1.38576585804419E-15,-1.84912186820077E-11));
#749=DIRECTION('',(-1.84921522539128E-11,0.,-1.));
#750=DIRECTION('',(-2.06191951641794E-15,-0.950892540498718,-0.309521205128008));
#751=DIRECTION('',(0.,0.309521205128008,-0.950892540498719));
#752=DIRECTION('',(1.75835908333699E-11,-0.309521205128008,0.950892540498719));
#753=DIRECTION('',(0.,-0.950892540498719,-0.30952120512801));
#754=DIRECTION('',(0.,-0.950892540498718,-0.309521205128008));
#755=DIRECTION('',(0.,0.309521205128008,-0.950892540498719));
#756=DIRECTION('',(1.22207104149789E-16,0.950892540498718,0.309521205128008));
#757=DIRECTION('',(0.,-0.309521205128008,0.950892540498719));
#758=DIRECTION('',(1.,-6.14336974659979E-17,-1.84909296246365E-11));
#759=DIRECTION('',(-1.84921522539128E-11,0.,-1.));
#760=DIRECTION('',(-1.,6.14336974659979E-17,1.84909296246365E-11));
#761=DIRECTION('',(1.84921522539128E-11,0.,1.));
#762=DIRECTION('',(0.,-1.,0.));
#763=DIRECTION('',(0.,0.,-1.));
#764=DIRECTION('',(-1.,1.15389900469218E-16,4.03323208164607E-17));
#765=DIRECTION('',(0.,-1.,0.));
#766=DIRECTION('',(-1.21213802883985E-16,-0.950892540498718,-0.309521205128008));
#767=DIRECTION('',(0.,0.309521205128008,-0.950892540498719));
#768=DIRECTION('',(0.,0.,1.));
#769=DIRECTION('',(-1.,0.,0.));
#770=DIRECTION('',(0.,-1.,0.));
#771=DIRECTION('',(0.,0.,-1.));
#772=DIRECTION('',(1.15389900469218E-16,1.,0.));
#773=DIRECTION('',(-1.,0.,0.));
#774=DIRECTION('',(-1.21213802883985E-16,-0.950892540498718,-0.309521205128008));
#775=DIRECTION('',(0.,0.309521205128008,-0.950892540498719));
#776=DIRECTION('',(-1.21213802883985E-16,-0.950892540498718,-0.309521205128008));
#777=DIRECTION('',(0.,0.309521205128008,-0.950892540498719));
#778=DIRECTION('',(1.,0.,0.));
#779=DIRECTION('',(0.,0.,-1.));
#780=DIRECTION('',(0.,0.,1.));
#781=DIRECTION('',(1.,0.,0.));
#782=DIRECTION('',(-1.14445377705085E-16,-1.,0.));
#783=DIRECTION('',(-1.,0.,0.));
#784=DIRECTION('',(-1.,1.14445377705085E-16,4.00248730116519E-17));
#785=DIRECTION('',(0.,1.,0.));
#786=DIRECTION('',(1.,6.1433697465891E-17,0.));
#787=DIRECTION('',(0.,1.,0.));
#788=DIRECTION('',(-1.,-6.1433697465891E-17,0.));
#789=DIRECTION('',(0.,-1.,0.));
#790=DIRECTION('',(-1.14445377705085E-16,-1.,0.));
#791=DIRECTION('',(-1.,0.,0.));
#792=DIRECTION('',(-1.14445377705085E-16,-1.,0.));
#793=DIRECTION('',(1.,-1.35525271560688E-16,0.));
#794=DIRECTION('',(0.,0.,1.));
#795=DIRECTION('',(-1.,0.,0.));
#796=DIRECTION('',(-1.21897089363692E-16,-0.916846120975585,-0.399240767522586));
#797=DIRECTION('',(0.,0.399240767522588,-0.916846120975583));
#798=DIRECTION('',(1.,-6.73020942097629E-12,5.69556615485864E-29));
#799=DIRECTION('',(6.73072708679001E-12,0.999999999999998,0.));
#800=DIRECTION('',(0.,0.,0.999999999999998));
#801=DIRECTION('',(-1.,0.,0.));
#802=DIRECTION('',(1.,-6.73020942097629E-12,5.69556615485864E-29));
#803=DIRECTION('',(6.73072708679001E-12,0.999999999999998,0.));
#804=DIRECTION('',(-1.,6.73020942097629E-12,-5.69556615485864E-29));
#805=DIRECTION('',(-6.73072708679001E-12,-0.999999999999998,0.));
#806=DIRECTION('',(-1.21897089363692E-16,-0.916846120975585,-0.399240767522586));
#807=DIRECTION('',(0.,0.399240767522587,-0.916846120975583));
#808=DIRECTION('',(-1.21897089363692E-16,-0.916846120975585,-0.399240767522586));
#809=DIRECTION('',(0.,0.399240767522586,-0.916846120975583));
#810=DIRECTION('',(-1.20908361633658E-16,-0.916846120975585,-0.399240767522586));
#811=DIRECTION('',(0.,0.399240767522588,-0.916846120975583));
#812=DIRECTION('',(0.,0.,0.999999999999998));
#813=DIRECTION('',(-1.,0.,0.));
#814=DIRECTION('',(-1.15389900469218E-16,-1.,0.));
#815=DIRECTION('',(-1.,0.,0.));
#816=DIRECTION('',(-1.,1.15389900469218E-16,4.03323208164607E-17));
#817=DIRECTION('',(0.,-1.,0.));
#818=DIRECTION('',(-1.20908361633658E-16,-0.916846120975585,-0.399240767522586));
#819=DIRECTION('',(0.,0.399240767522587,-0.916846120975583));
#820=DIRECTION('',(-1.20908361633658E-16,-0.916846120975585,-0.399240767522586));
#821=DIRECTION('',(0.,0.399240767522586,-0.916846120975583));
#822=DIRECTION('',(-1.15389900469218E-16,-1.,0.));
#823=DIRECTION('',(-1.,0.,0.));
#824=DIRECTION('',(-1.15389900469218E-16,-1.,0.));
#825=DIRECTION('',(1.,0.,0.));
#826=DIRECTION('',(-1.14445377705085E-16,-1.,0.));
#827=DIRECTION('',(1.,0.,0.));
#828=DIRECTION('',(-1.,1.14445377705085E-16,4.00248730116519E-17));
#829=DIRECTION('',(0.,1.,0.));
#830=DIRECTION('',(1.,6.1433697465891E-17,0.));
#831=DIRECTION('',(0.,-1.,0.));
#832=DIRECTION('',(0.,0.,0.999999999999998));
#833=DIRECTION('',(-1.,0.,0.));
#834=DIRECTION('',(-1.14445377705085E-16,-1.,0.));
#835=DIRECTION('',(1.,0.,0.));
#836=DIRECTION('',(1.14445377705085E-16,1.,0.));
#837=DIRECTION('',(-1.,0.,0.));
#838=DIRECTION('',(1.,6.1433697465891E-17,0.));
#839=DIRECTION('',(0.,-1.,0.));
#840=DIRECTION('',(1.,6.1433697465891E-17,0.));
#841=DIRECTION('',(0.,1.,0.));
#842=DIRECTION('',(0.,0.,0.999999999999998));
#843=DIRECTION('',(-1.,0.,0.));
#844=CARTESIAN_POINT('',(0.,0.,0.));
#845=CARTESIAN_POINT('',(8.91325757204166,0.877553741035449,8.33922092395981));
#846=CARTESIAN_POINT('',(2.79325757204071,0.877553740687792,8.33922092395981));
#847=CARTESIAN_POINT('',(9.56325757204816,0.877553741072373,8.33922092395981));
#848=CARTESIAN_POINT('',(9.56325757204424,1.82375244046021,8.64721425575533));
#849=CARTESIAN_POINT('',(9.56325757204424,3.60632817999502,9.2274533128845));
#850=CARTESIAN_POINT('',(4.58381550744846,3.6063281799942,9.2274533129763));
#851=CARTESIAN_POINT('',(2.79325757204423,3.6063281799942,9.22745331300941));
#852=CARTESIAN_POINT('',(2.79325757204423,1.82375244042418,8.64721425586602));
#853=CARTESIAN_POINT('',(4.58381550743773,1.82375244043392,8.64721425583608));
#854=CARTESIAN_POINT('',(9.56325757204072,-1.71482667960149,7.39983926564735));
#855=CARTESIAN_POINT('',(9.56325757204072,-1.71482667960149,6.40609834498549));
#856=CARTESIAN_POINT('',(9.56325757204072,-1.71482667960149,8.11466719420917));
#857=CARTESIAN_POINT('',(-7.17746763204072,-1.71482667960149,8.11466719420917));
#858=CARTESIAN_POINT('',(2.79325757204071,-1.71482667960149,8.11466719420917));
#859=CARTESIAN_POINT('',(2.79325757204071,-1.71482667960149,7.39983926564735));
#860=CARTESIAN_POINT('',(2.79325757204071,-1.71482667960149,6.40609834498549));
#861=CARTESIAN_POINT('',(-7.17746763204072,-1.71482667960149,6.40609834498549));
#862=CARTESIAN_POINT('',(-7.17746763204072,-1.71482667960149,7.39983926564735));
#863=CARTESIAN_POINT('',(2.59325757204071,0.722793138123788,8.81466719420917));
#864=CARTESIAN_POINT('',(2.59325757204071,0.722793138123788,8.11466719420917));
#865=CARTESIAN_POINT('',(2.59325757204071,0.939457981713393,8.14904241586006));
#866=CARTESIAN_POINT('',(2.59325757204071,1.40498460826132,8.30057411511256));
#867=CARTESIAN_POINT('',(2.59325757204071,3.66823242101981,9.03727480490967));
#868=CARTESIAN_POINT('',(2.59325757204071,4.19477941839278,7.59059881934578));
#869=CARTESIAN_POINT('',(2.59325757204071,4.23733624520997,7.47367489862192));
#870=CARTESIAN_POINT('',(2.59325757204071,2.01655395184136,6.50663494827385));
#871=CARTESIAN_POINT('',(2.59325757204457,1.93844282658624,6.47262144820502));
#872=CARTESIAN_POINT('',(2.59325757204243,1.61905021256817,7.20609834498549));
#873=CARTESIAN_POINT('',(2.59325757204071,1.61905021256817,6.40609834498549));
#874=CARTESIAN_POINT('',(2.59325757204071,1.90711560600965,6.40609834498549));
#875=CARTESIAN_POINT('',(2.59325757204071,-1.51482667960149,6.40609834498549));
#876=CARTESIAN_POINT('',(2.59325757204071,-1.51482667960149,6.75795728563038));
#877=CARTESIAN_POINT('',(2.59325757204071,-1.51482667960149,8.11466719420917));
#878=CARTESIAN_POINT('',(2.59325757204071,1.90711560600965,8.11466719420917));
#879=CARTESIAN_POINT('',(2.59325757204071,1.90711560600965,6.75795728563038));
#880=CARTESIAN_POINT('',(2.79325757204197,4.60260888879565,7.05485743845838));
#881=CARTESIAN_POINT('',(2.79325757204198,4.42527476936715,7.54207892728706));
#882=CARTESIAN_POINT('',(2.79325757204197,3.85617094517699,9.1056788335748));
#883=CARTESIAN_POINT('',(6.91325757208129,3.85617094517699,9.10567883349862));
#884=CARTESIAN_POINT('',(9.56325757204199,3.8561709451761,9.10567883345207));
#885=CARTESIAN_POINT('',(9.56325757204199,4.60260888875631,7.05485743844406));
#886=CARTESIAN_POINT('',(9.56325757204198,4.42527476932166,7.54207892728687));
#887=CARTESIAN_POINT('',(6.91325757204217,4.42527476933942,7.54207892728706));
#888=CARTESIAN_POINT('',(6.91325757204336,4.60260888877117,7.05485743844947));
#889=CARTESIAN_POINT('',(4.74289497002331,1.61905021255505,6.20609834498549));
#890=CARTESIAN_POINT('',(2.79325757204071,1.61905021256817,6.20609834498549));
#891=CARTESIAN_POINT('',(9.56325757204072,1.61905021252261,6.20609834498549));
#892=CARTESIAN_POINT('',(9.56325757204072,-1.84368345966158,6.20609834498549));
#893=CARTESIAN_POINT('',(9.56325757204072,-1.51482667960149,6.20609834498549));
#894=CARTESIAN_POINT('',(4.74289497,-1.51482667960149,6.20609834498549));
#895=CARTESIAN_POINT('',(2.79325757204071,-1.51482667960149,6.20609834498549));
#896=CARTESIAN_POINT('',(2.79325757204071,-1.84368345966158,6.20609834498549));
#897=CARTESIAN_POINT('',(4.74289497,-1.84368345966158,6.20609834498549));
#898=CARTESIAN_POINT('',(9.76325757204072,0.722793138508369,8.81466719420917));
#899=CARTESIAN_POINT('',(9.76325757204072,0.939457982097158,8.14904241586257));
#900=CARTESIAN_POINT('',(9.76325757204072,0.722793138508369,8.11466719420917));
#901=CARTESIAN_POINT('',(9.76325757204072,-0.615084419362137,8.11466719420917));
#902=CARTESIAN_POINT('',(9.76325757204072,-1.51482667960149,8.11466719420917));
#903=CARTESIAN_POINT('',(9.76325757204072,-1.51482667960149,5.93696610306116));
#904=CARTESIAN_POINT('',(9.76325757204072,-1.51482667960149,6.40609834498549));
#905=CARTESIAN_POINT('',(9.76325757204072,-0.615084419362137,6.40609834498549));
#906=CARTESIAN_POINT('',(9.76325757204072,1.61905021252261,6.40609834498549));
#907=CARTESIAN_POINT('',(9.76325757204244,1.61905021252261,7.20609834498549));
#908=CARTESIAN_POINT('',(9.76325757204459,1.93844282654084,6.47262144820465));
#909=CARTESIAN_POINT('',(9.76325757204072,-0.40414210554279,5.45254252233567));
#910=CARTESIAN_POINT('',(9.76325757204072,4.23733624516449,7.47367489862174));
#911=CARTESIAN_POINT('',(9.76325757204072,4.16359954251155,7.67626482414847));
#912=CARTESIAN_POINT('',(9.76325757204072,3.6682324210198,9.03727480478726));
#913=CARTESIAN_POINT('',(9.76325757204072,-1.11721541704143,7.47958293233121));
#914=CARTESIAN_POINT('',(9.76325757204072,-0.615084419362137,5.93696610306116));
#915=CARTESIAN_POINT('',(4.90959693262741,-1.51482667960149,8.31466719420917));
#916=CARTESIAN_POINT('',(2.79325757204071,-1.51482667960149,8.31466719420917));
#917=CARTESIAN_POINT('',(9.56325757204072,-1.51482667960149,8.31466719420917));
#918=CARTESIAN_POINT('',(9.56325757204072,-0.0890842892980869,8.31466719420917));
#919=CARTESIAN_POINT('',(9.5632575720464,0.722793138508369,8.31466719420917));
#920=CARTESIAN_POINT('',(2.59325757205044,0.722793138112427,8.31466719420917));
#921=CARTESIAN_POINT('',(2.79325757204071,0.722793138123788,8.31466719420917));
#922=CARTESIAN_POINT('',(2.79325757204071,-0.089084289298086,8.31466719420917));
#923=CARTESIAN_POINT('',(4.90959693262741,-0.0890842892980863,8.31466719420917));
#924=CARTESIAN_POINT('',(9.56325757205208,0.722793138508369,8.31466719420917));
#925=CARTESIAN_POINT('',(9.56325757205208,0.775678539882806,8.31466719420917));
#926=CARTESIAN_POINT('',(9.56325757204816,0.82726540740414,8.32285177079271));
#927=CARTESIAN_POINT('',(9.56325757204816,0.877553741072373,8.33922092395981));
#928=CARTESIAN_POINT('',(2.79325757204071,0.722793138123788,8.81466719420917));
#929=CARTESIAN_POINT('',(4.90959693258129,0.72279313824401,8.81466719420917));
#930=CARTESIAN_POINT('',(6.91325757204144,4.31718439868676,7.29030567442681));
#931=CARTESIAN_POINT('',(2.79325757204125,4.31718439871448,7.29030567442681));
#932=CARTESIAN_POINT('',(9.56325757204126,4.31718439866892,7.29030567442681));
#933=CARTESIAN_POINT('',(9.56325757204126,4.47674685577071,7.35978716797658));
#934=CARTESIAN_POINT('',(9.56325757204319,2.01829098004527,6.28925222400972));
#935=CARTESIAN_POINT('',(6.91325757202597,2.01829098006303,6.2892522240099));
#936=CARTESIAN_POINT('',(2.79325757204318,2.01829098009076,6.2892522240099));
#937=CARTESIAN_POINT('',(2.79325757204125,4.47674685577781,7.35978716796027));
#938=CARTESIAN_POINT('',(6.91325757204252,4.47674685577339,7.35978716797042));
#939=CARTESIAN_POINT('',(9.56325757204379,1.61905021252261,7.20609834498549));
#940=CARTESIAN_POINT('',(2.79325757204297,1.61905021256817,7.20609834498549));
#941=CARTESIAN_POINT('',(4.74289497002331,1.61905021255505,7.20609834498549));
#942=CARTESIAN_POINT('',(9.56325757204072,-1.51482667960149,8.11466719420917));
#943=CARTESIAN_POINT('',(9.56325757204072,-1.51482667960149,6.40609834498549));
#944=CARTESIAN_POINT('',(9.56325757204072,-1.51482667960149,5.93696610306116));
#945=CARTESIAN_POINT('',(9.56325757204072,3.6682324210198,9.03727480478726));
#946=CARTESIAN_POINT('',(9.56325757204072,4.23733624516537,7.47367489862206));
#947=CARTESIAN_POINT('',(9.56325757204072,4.16359954251154,7.67626482414847));
#948=CARTESIAN_POINT('',(2.79325757204071,-1.51482667960149,8.11466719420917));
#949=CARTESIAN_POINT('',(2.79325757204071,-1.51482667960149,6.40609834498549));
#950=CARTESIAN_POINT('',(2.79325757204071,-1.51482667960149,7.39983926564735));
#951=CARTESIAN_POINT('',(2.79325757204071,3.6682324210198,9.03727480490967));
#952=CARTESIAN_POINT('',(2.79325757204071,4.23733624520997,7.47367489862192));
#953=CARTESIAN_POINT('',(2.79325757204071,4.41467036463847,6.98645340979324));
#954=CARTESIAN_POINT('',(2.79325757204071,3.6682324210198,9.03727480490967));
#955=CARTESIAN_POINT('',(2.79325757204071,3.66823242101981,9.03727480490967));
#956=CARTESIAN_POINT('',(2.79325757204071,3.66823242101981,9.03727480490967));
#957=CARTESIAN_POINT('',(2.79325757204071,0.939457981713393,8.14904241586006));
#958=CARTESIAN_POINT('',(2.79325757204071,1.40498460826132,8.30057411511256));
#959=CARTESIAN_POINT('',(9.56325757204072,3.6682324210198,9.03727480478449));
#960=CARTESIAN_POINT('',(4.58381550744495,3.66823242101981,9.03727480487656));
#961=CARTESIAN_POINT('',(2.79325757204071,0.722793138123788,8.11466719420917));
#962=CARTESIAN_POINT('',(2.79325757204071,0.722793138123788,8.81466719420917));
#963=CARTESIAN_POINT('',(9.56325757204072,3.6682324210198,9.03727480478726));
#964=CARTESIAN_POINT('',(9.56325757204072,3.6682324210198,9.03727480478726));
#965=CARTESIAN_POINT('',(2.79325757204071,-1.51482667960149,8.11466719420917));
#966=CARTESIAN_POINT('',(2.79325757204071,1.90711560600965,8.11466719420917));
#967=CARTESIAN_POINT('',(9.56325757204072,0.939457982097158,8.14904241586257));
#968=CARTESIAN_POINT('',(9.56325757204072,1.88565668148581,8.45703574765559));
#969=CARTESIAN_POINT('',(2.79325757204071,-1.51482667960149,8.11466719420917));
#970=CARTESIAN_POINT('',(2.79325757204071,-1.51482667960149,8.11466719420917));
#971=CARTESIAN_POINT('',(9.56325757204072,0.722793138508369,8.11466719420917));
#972=CARTESIAN_POINT('',(9.56325757204072,0.722793138508369,8.81466719420917));
#973=CARTESIAN_POINT('',(9.56325757204072,-1.51482667960149,8.11466719420917));
#974=CARTESIAN_POINT('',(-7.17746763204072,-1.51482667960149,8.11466719420917));
#975=CARTESIAN_POINT('',(9.56325757204072,-1.51482667960149,8.11466719420917));
#976=CARTESIAN_POINT('',(9.56325757204072,-0.0890842892980869,8.11466719420917));
#977=CARTESIAN_POINT('',(9.56325757204072,-1.51482667960149,8.11466719420917));
#978=CARTESIAN_POINT('',(2.79325757204071,4.23733624520997,7.47367489862192));
#979=CARTESIAN_POINT('',(2.79325757204071,4.23733624520997,7.47367489862192));
#980=CARTESIAN_POINT('',(2.79325757204071,4.23733624520997,7.47367489862192));
#981=CARTESIAN_POINT('',(9.56325757204072,4.23733624516441,7.47367489862192));
#982=CARTESIAN_POINT('',(6.91325757204091,4.23733624518224,7.47367489862192));
#983=CARTESIAN_POINT('',(2.79325757204457,1.93844282658624,6.47262144820502));
#984=CARTESIAN_POINT('',(2.79325757204071,2.01655395184136,6.50663494827385));
#985=CARTESIAN_POINT('',(9.56325757204072,4.23733624516457,7.47367489862155));
#986=CARTESIAN_POINT('',(9.56325757204072,4.23733624516449,7.47367489862174));
#987=CARTESIAN_POINT('',(2.79325757204071,1.61905021256817,6.40609834498549));
#988=CARTESIAN_POINT('',(2.79325757204243,1.61905021256817,7.20609834498549));
#989=CARTESIAN_POINT('',(9.56325757204458,1.93844282654084,6.47262144820465));
#990=CARTESIAN_POINT('',(9.56325757204072,-0.40414210554279,5.45254252233567));
#991=CARTESIAN_POINT('',(2.79325757204071,-1.51482667960149,6.40609834498549));
#992=CARTESIAN_POINT('',(2.79325757204071,-1.84368345966158,6.40609834498549));
#993=CARTESIAN_POINT('',(9.56325757204244,1.61905021252261,6.40609834498549));
#994=CARTESIAN_POINT('',(9.56325757204244,1.61905021252261,7.20609834498549));
#995=CARTESIAN_POINT('',(2.79325757204071,-1.51482667960149,6.40609834498549));
#996=CARTESIAN_POINT('',(2.79325757204071,-1.51482667960149,6.40609834498549));
#997=CARTESIAN_POINT('',(9.56325757204072,-1.51482667960149,6.40609834498549));
#998=CARTESIAN_POINT('',(9.56325757204072,-0.615084419362137,6.40609834498549));
#999=CARTESIAN_POINT('',(9.56325757204072,-1.51482667960149,6.40609834498549));
#1000=CARTESIAN_POINT('',(4.74289497,-1.51482667960149,6.40609834498549));
#1001=CARTESIAN_POINT('',(9.56325757204072,-1.51482667960149,6.40609834498549));
#1002=MECHANICAL_DESIGN_GEOMETRIC_PRESENTATION_REPRESENTATION('',(#32),
#1003);
#1003=(
GEOMETRIC_REPRESENTATION_CONTEXT(3)
GLOBAL_UNCERTAINTY_ASSIGNED_CONTEXT((#1004))
GLOBAL_UNIT_ASSIGNED_CONTEXT((#1010,#1006,#1005))
REPRESENTATION_CONTEXT('160-06269-01','TOP_LEVEL_ASSEMBLY_PART')
);
#1004=UNCERTAINTY_MEASURE_WITH_UNIT(LENGTH_MEASURE(0.0002),#1010,
'DISTANCE_ACCURACY_VALUE','Maximum Tolerance applied to model');
#1005=(
NAMED_UNIT(*)
SI_UNIT($,.STERADIAN.)
SOLID_ANGLE_UNIT()
);
#1006=(
CONVERSION_BASED_UNIT('DEGREE',#1008)
NAMED_UNIT(#1007)
PLANE_ANGLE_UNIT()
);
#1007=DIMENSIONAL_EXPONENTS(0.,0.,0.,0.,0.,0.,0.);
#1008=PLANE_ANGLE_MEASURE_WITH_UNIT(PLANE_ANGLE_MEASURE(0.0174532925),#1009);
#1009=(
NAMED_UNIT(*)
PLANE_ANGLE_UNIT()
SI_UNIT($,.RADIAN.)
);
#1010=(
LENGTH_UNIT()
NAMED_UNIT(*)
SI_UNIT(.MILLI.,.METRE.)
);
ENDSEC;
END-ISO-10303-21;
